<svg width="61" height="60" viewBox="0 0 61 60" fill="none" xmlns="http://www.w3.org/2000/svg">
<g clip-path="url(#clip0)">
<path d="M2.65847 59.4769C0.268881 58.2638 -0.686438 55.3434 0.52674 52.9539L25.5092 3.71983C26.6983 1.3783 29.0929 -0.0572512 31.7302 0.00473734C34.2689 0.0641308 36.5434 1.59819 37.6934 3.8627L53.527 35.3466C54.5986 37.4595 54.5038 39.9236 53.2743 41.9454C52.0182 44.0115 49.7171 45.2094 47.2997 45.2094H31.4367C28.7565 45.2094 26.5843 43.0372 26.5843 40.357C26.5843 37.6781 28.7564 35.5045 31.4367 35.5045H42.7239L31.566 13.2336L9.18137 57.3454C7.96829 59.735 5.04794 60.689 2.65845 59.4772" fill="url(#paint0_linear)"/>
<path d="M42.0853 35.4976H31.4437C28.7595 35.4976 26.5836 37.6735 26.5836 40.3576C26.5836 43.0417 28.7595 45.2177 31.4437 45.2177H42.0853C44.7695 45.2177 46.9454 43.0417 46.9454 40.3576C46.9454 37.6735 44.7695 35.4976 42.0853 35.4976Z" fill="url(#paint1_linear)"/>
<path d="M53.2772 41.944C54.5067 39.9221 54.6016 37.4581 53.53 35.3452L37.6963 3.86131C36.5464 1.5969 34.2718 0.0627653 31.7319 0.00334436C29.0959 -0.0598362 26.7013 1.37691 25.5135 3.71844L20.9669 12.6764H20.9682C28.1558 5.59369 31.5686 13.2324 31.5686 13.2324L42.7265 35.5034C45.68 40.3189 45.5823 44.9805 38.3316 45.2079H47.3023C49.7197 45.2079 52.0208 44.0099 53.2769 41.9438" fill="url(#paint2_linear)"/>
<path d="M56.1016 59.9995H23.3201C20.6399 59.9995 18.4677 57.8274 18.4677 55.1471C18.4677 52.4682 20.6398 50.2947 23.3201 50.2947H56.1016C58.7805 50.2947 60.954 52.4681 60.954 55.1471C60.954 57.8273 58.7806 59.9995 56.1016 59.9995Z" fill="url(#paint3_linear)"/>
</g>
<defs>
<linearGradient id="paint0_linear" x1="4.25311" y1="46.043" x2="17.1185" y2="20.2572" gradientUnits="userSpaceOnUse">
<stop stop-color="#0D6DAB"/>
<stop offset="1" stop-color="#5A9326"/>
</linearGradient>
<linearGradient id="paint1_linear" x1="26.5836" y1="40.3576" x2="46.9408" y2="40.3576" gradientUnits="userSpaceOnUse">
<stop stop-color="#FC8F30"/>
<stop offset="1" stop-color="#FC4B30"/>
</linearGradient>
<linearGradient id="paint2_linear" x1="41.0446" y1="-3.22877" x2="41.0446" y2="31.9396" gradientUnits="userSpaceOnUse">
<stop stop-color="#5AA426"/>
<stop offset="1" stop-color="#FC8F30"/>
</linearGradient>
<linearGradient id="paint3_linear" x1="38.5687" y1="60.1554" x2="38.5229" y2="52.2051" gradientUnits="userSpaceOnUse">
<stop stop-color="#E52626"/>
<stop offset="1" stop-color="#FC8F30"/>
</linearGradient>
<clipPath id="clip0">
<rect width="60.953" height="60" fill="white"/>
</clipPath>
</defs>
</svg>
