<?xml version="1.0" encoding="UTF-8" standalone="no"?>
<svg
   xmlns:dc="http://purl.org/dc/elements/1.1/"
   xmlns:cc="http://creativecommons.org/ns#"
   xmlns:rdf="http://www.w3.org/1999/02/22-rdf-syntax-ns#"
   xmlns:svg="http://www.w3.org/2000/svg"
   xmlns="http://www.w3.org/2000/svg"
   xmlns:sodipodi="http://sodipodi.sourceforge.net/DTD/sodipodi-0.dtd"
   xmlns:inkscape="http://www.inkscape.org/namespaces/inkscape"
   version="1.1"
   id="svg2"
   xml:space="preserve"
   width="393.33334"
   height="240"
   viewBox="0 0 393.33334 240"
   sodipodi:docname="base_logo_transparent_background.eps"><metadata
     id="metadata8"><rdf:RDF><cc:Work
         rdf:about=""><dc:format>image/svg+xml</dc:format><dc:type
           rdf:resource="http://purl.org/dc/dcmitype/StillImage" /></cc:Work></rdf:RDF></metadata><defs
     id="defs6" /><sodipodi:namedview
     pagecolor="#ffffff"
     bordercolor="#ffffff"
     borderopacity="1"
     objecttolerance="10"
     gridtolerance="10"
     guidetolerance="10"
     inkscape:pageopacity="0"
     inkscape:pageshadow="2"
     inkscape:window-width="640"
     inkscape:window-height="480"
     id="namedview4" /><g
     id="g10"
     inkscape:groupmode="layer"
     inkscape:label="ink_ext_XXXXXX"
     transform="matrix(1.3333333,0,0,-1.3333333,0,240)"><g
       id="g12"
       transform="scale(0.1)"><path
         d="m 541.988,16.8789 6.453,-15.78906 h 8.547 L 555.59,4.60938 532.539,61.5195 h -3.398 L 506.129,4.60938 504.73,1.08984 h 8.508 l 6.453,15.78906 z m -11.129,27.6524 7.93,-19.6915 h -15.898 z"
         style="fill:#ffffff;fill-opacity:1;fill-rule:nonzero;stroke:none"
         id="path14" /><path
         d="m 672.27,16.6016 -35.391,44.9179 h -5.938 V 1.08984 h 7.93 V 46.0195 L 674.379,1.08984 h 5.891 V 61.5195 h -8 z"
         style="fill:#ffffff;fill-opacity:1;fill-rule:nonzero;stroke:none"
         id="path16" /><path
         d="m 794.879,16.8789 6.41,-15.78906 h 8.551 L 808.441,4.60938 785.43,61.5195 h -3.442 L 758.98,4.60938 757.578,1.08984 h 8.551 l 6.41,15.78906 z m -11.168,27.6524 7.93,-19.6915 h -15.86 z"
         style="fill:#ffffff;fill-opacity:1;fill-rule:nonzero;stroke:none"
         id="path18" /><path
         d="M 908.789,7.23047 V 9.05859 H 886.25 V 61.5195 h -7.93 V 1.08984 h 30.469 z"
         style="fill:#ffffff;fill-opacity:1;fill-rule:nonzero;stroke:none"
         id="path20" /><path
         d="m 972.301,61.5195 h -6.129 V 1.08984 h 7.93 V 61.5195 Z"
         style="fill:#ffffff;fill-opacity:1;fill-rule:nonzero;stroke:none"
         id="path22" /><path
         d="m 1057.97,51.9492 6.13,4.9297 c -1.4,1.832 -3.24,3.2422 -5.35,4.2109 -1.99,1.0196 -4.22,1.5313 -6.52,1.5313 -4.11,0 -7.93,-1.6016 -10.86,-4.5313 -2.82,-2.8203 -4.42,-6.7187 -4.42,-10.75 0,-9.7617 6.72,-13.1601 14.57,-16.6796 5.43,-2.3008 11.06,-4.6407 11.06,-11.5586 0,-2.9297 -1.21,-5.7422 -3.32,-7.8516 -1.99,-2.10937 -4.81,-3.19922 -7.81,-3.19922 -2.04,0 -3.95,0.5 -5.75,1.48047 -1.6,1.01955 -3,2.41795 -3.94,4.14065 l -0.08,0.1992 -7.03,-3.832 V 9.96094 c 1.72,-2.92969 4.1,-5.42969 7.03,-7.26172 C 1044.61,1.01953 1048.01,0 1051.45,0 c 5.11,0 9.92,1.98828 13.43,5.62109 3.64,3.64063 5.63,8.43751 5.63,13.48051 0,11.0586 -6.92,14.957 -15.86,18.9101 -4.22,1.7891 -9.77,3.7891 -9.77,9.3281 0,1.9219 0.82,3.8321 2.11,5.1211 1.41,1.4102 3.24,2.2305 5.24,2.2305 1.09,0 2.11,-0.3125 3.12,-0.7109 1.02,-0.5 1.92,-1.211 2.62,-2.0313 z"
         style="fill:#ffffff;fill-opacity:1;fill-rule:nonzero;stroke:none"
         id="path24" /><path
         d="m 1150.27,53.5508 h 14.5 v 7.9687 h -36.92 v -7.9687 h 14.49 V 1.08984 h 7.93 z"
         style="fill:#ffffff;fill-opacity:1;fill-rule:nonzero;stroke:none"
         id="path26" /><path
         d="m 1255.7,16.8789 6.45,-15.78906 h 8.55 l -1.4,3.51954 -23.05,56.91012 h -3.4 l -23.01,-56.91012 -1.4,-3.51954 h 8.51 l 6.45,15.78906 z m -11.13,27.6524 7.93,-19.6915 h -15.9 z"
         style="fill:#ffffff;fill-opacity:1;fill-rule:nonzero;stroke:none"
         id="path28" /><path
         d="M 1414.34,61.5195 V 1.08984 h 17.77 c 8.05,0 15.7,3.12891 21.41,8.8711 5.66,5.69926 8.86,13.35936 8.86,21.41016 0,8.0391 -3.2,15.6602 -8.86,21.2891 -5.71,5.7382 -13.36,8.8593 -21.41,8.8593 z m 7.93,-7.9687 h 9.84 c 5.94,0 11.56,-2.3008 15.78,-6.5195 4.14,-4.1016 6.56,-9.7305 6.56,-15.6602 0,-5.9414 -2.42,-11.5703 -6.56,-15.7813 -4.22,-4.2187 -9.84,-6.53121 -15.78,-6.53121 h -9.84 z"
         style="fill:#ffffff;fill-opacity:1;fill-rule:nonzero;stroke:none"
         id="path30" /><path
         d="m 1536.56,53.5508 h 20.71 v 7.9687 h -28.64 V 1.08984 h 28.64 v 7.96875 h -20.71 V 23.6289 h 15.71 v 8.0508 h -15.71 z"
         style="fill:#ffffff;fill-opacity:1;fill-rule:nonzero;stroke:none"
         id="path32" /><path
         d="m 1717.23,51.9492 6.13,4.9297 c -1.45,1.832 -3.24,3.2422 -5.35,4.2109 -1.99,1.0196 -4.22,1.5313 -6.53,1.5313 -4.14,0 -7.93,-1.6016 -10.86,-4.5313 -2.81,-2.8203 -4.41,-6.7187 -4.41,-10.75 0,-9.7617 6.72,-13.1601 14.57,-16.6796 5.43,-2.3008 11.06,-4.6407 11.06,-11.5586 0,-2.9297 -1.22,-5.7422 -3.32,-7.8516 -2,-2.10937 -4.85,-3.19922 -7.86,-3.19922 -1.99,0 -3.9,0.5 -5.7,1.48047 -1.64,1.01955 -3.05,2.41795 -3.94,4.14065 l -0.08,0.1992 -7.03,-3.832 V 9.96094 c 1.68,-2.92969 4.1,-5.42969 7.03,-7.26172 C 1703.83,1.01953 1707.27,0 1710.66,0 c 5.16,0 9.96,1.98828 13.48,5.62109 3.63,3.64063 5.63,8.43751 5.63,13.48051 0,11.0586 -6.92,14.957 -15.86,18.9101 -4.22,1.7891 -9.77,3.7891 -9.77,9.3281 0,1.9219 0.82,3.8321 2.11,5.1211 1.41,1.4102 3.2,2.2305 5.23,2.2305 1.1,0 2.11,-0.3125 3.13,-0.7109 0.98,-0.5 1.91,-1.211 2.62,-2.0313 z"
         style="fill:#ffffff;fill-opacity:1;fill-rule:nonzero;stroke:none"
         id="path34" /><path
         d="m 1793.59,61.5195 h -6.13 V 1.08984 h 7.93 V 61.5195 Z"
         style="fill:#ffffff;fill-opacity:1;fill-rule:nonzero;stroke:none"
         id="path36" /><path
         d="m 1879.26,51.9492 6.13,4.9297 c -1.41,1.832 -3.2,3.2422 -5.31,4.2109 -2.03,1.0196 -4.26,1.5313 -6.56,1.5313 -4.11,0 -7.93,-1.6016 -10.86,-4.5313 -2.82,-2.8203 -4.42,-6.7187 -4.42,-10.75 0,-9.7617 6.76,-13.1601 14.57,-16.6796 5.43,-2.3008 11.06,-4.6407 11.06,-11.5586 0,-2.9297 -1.21,-5.7422 -3.32,-7.8516 -2,-2.10937 -4.81,-3.19922 -7.82,-3.19922 -2.03,0 -3.94,0.5 -5.74,1.48047 -1.6,1.01955 -3.01,2.41795 -3.9,4.14065 l -0.12,0.1992 -7.03,-3.832 V 9.96094 c 1.72,-2.92969 4.14,-5.42969 7.03,-7.26172 C 1865.9,1.01953 1869.3,0 1872.73,0 c 5.12,0 9.93,1.98828 13.48,5.62109 3.59,3.64063 5.63,8.43751 5.63,13.48051 0,11.0586 -6.96,14.957 -15.9,18.9101 -4.22,1.7891 -9.77,3.7891 -9.77,9.3281 0,1.9219 0.82,3.8321 2.15,5.1211 1.41,1.4102 3.2,2.2305 5.2,2.2305 1.13,0 2.1,-0.3125 3.12,-0.7109 1.02,-0.5 1.91,-1.211 2.62,-2.0313 z"
         style="fill:#ffffff;fill-opacity:1;fill-rule:nonzero;stroke:none"
         id="path38" /><path
         d="m 1971.56,53.5508 h 14.49 v 7.9687 h -36.87 v -7.9687 h 14.45 V 1.08984 h 7.93 z"
         style="fill:#ffffff;fill-opacity:1;fill-rule:nonzero;stroke:none"
         id="path40" /><path
         d="m 2059.88,53.5508 h 20.71 v 7.9687 h -28.68 V 1.08984 h 28.68 v 7.96875 h -20.71 V 23.6289 h 15.67 v 8.0508 h -15.67 z"
         style="fill:#ffffff;fill-opacity:1;fill-rule:nonzero;stroke:none"
         id="path42" /><path
         d="m 2181.84,38.3984 -22.93,23.1211 h -5.63 V 1.08984 h 7.97 V 47.9297 l 20.59,-20.7813 20.58,20.7813 V 1.08984 h 8.05 V 61.5195 h -5.63 z"
         style="fill:#ffffff;fill-opacity:1;fill-rule:nonzero;stroke:none"
         id="path44" /><path
         d="m 2323.83,16.8789 6.44,-15.78906 h 8.56 l -1.41,3.51954 -23.04,56.91012 h -3.4 l -23.01,-56.91012 -1.41,-3.51954 h 8.52 l 6.44,15.78906 z m -11.13,27.6524 7.92,-19.6915 h -15.89 z"
         style="fill:#ffffff;fill-opacity:1;fill-rule:nonzero;stroke:none"
         id="path46" /><path
         d="m 2432.19,51.9492 6.13,4.9297 c -1.41,1.832 -3.2,3.2422 -5.31,4.2109 -2.03,1.0196 -4.26,1.5313 -6.56,1.5313 -4.11,0 -7.93,-1.6016 -10.86,-4.5313 -2.82,-2.8203 -4.42,-6.7187 -4.42,-10.75 0,-9.7617 6.76,-13.1601 14.57,-16.6796 5.43,-2.3008 11.06,-4.6407 11.06,-11.5586 0,-2.9297 -1.21,-5.7422 -3.32,-7.8516 -2,-2.10937 -4.81,-3.19922 -7.82,-3.19922 -2.03,0 -3.94,0.5 -5.74,1.48047 -1.6,1.01955 -3.01,2.41795 -3.9,4.14065 l -0.12,0.1992 -7.03,-3.832 V 9.96094 c 1.72,-2.92969 4.14,-5.42969 7.03,-7.26172 C 2418.83,1.01953 2422.23,0 2425.66,0 c 5.12,0 9.93,1.98828 13.48,5.62109 3.59,3.64063 5.63,8.43751 5.63,13.48051 0,11.0586 -6.96,14.957 -15.9,18.9101 -4.22,1.7891 -9.77,3.7891 -9.77,9.3281 0,1.9219 0.82,3.8321 2.15,5.1211 1.41,1.4102 3.2,2.2305 5.2,2.2305 1.13,0 2.1,-0.3125 3.12,-0.7109 1.02,-0.5 1.91,-1.211 2.62,-2.0313 z"
         style="fill:#ffffff;fill-opacity:1;fill-rule:nonzero;stroke:none"
         id="path48" /><path
         d="m 159.41,150.121 c 4.93,0 9.262,3.707 9.262,9.258 0,4.961 -4.332,9.25 -9.262,9.25 H 28.5898 L 166.172,344.488 c 2.5,3.09 3.09,6.801 1.25,9.891 -1.25,3.082 -4.922,5.543 -8.012,5.543 H 9.44922 c -5.53906,0 -9.250001,-4.301 -9.250001,-9.262 0,-5.539 3.710941,-9.84 9.250001,-9.84 H 139.648 L 2.03125,164.922 c -2.460938,-3.082 -2.460938,-6.762 -1.210937,-9.844 1.839847,-3.09 4.917967,-4.957 8.628907,-4.957 z"
         style="fill:#ffffff;fill-opacity:1;fill-rule:nonzero;stroke:none"
         id="path50" /><path
         d="m 539.219,150.121 c 4.922,0 9.261,3.707 9.261,9.258 0,4.961 -4.339,9.25 -9.261,9.25 H 389.262 c -5.551,0 -9.262,-4.289 -9.262,-9.25 0,-5.551 3.711,-9.258 9.262,-9.258 z m 1.211,95.039 c 4.961,0 9.261,4.328 9.261,9.879 0,4.922 -4.3,9.262 -9.261,9.262 H 389.262 c -5.551,0 -9.262,-4.34 -9.262,-9.262 0,-5.551 3.711,-9.879 9.262,-9.879 z m -1.211,95.66 c 4.922,0 9.261,4.301 9.261,9.84 0,4.961 -4.339,9.262 -9.261,9.262 H 389.262 c -5.551,0 -9.262,-4.301 -9.262,-9.262 0,-5.539 3.711,-9.84 9.262,-9.84 z"
         style="fill:#ffffff;fill-opacity:1;fill-rule:nonzero;stroke:none"
         id="path52" /><path
         d="m 865.309,150.121 c 57.39,0 104.3,46.289 104.3,103.668 v 1.871 c 0,57.391 -46.91,104.262 -104.3,104.262 h -95 c -4.957,0 -9.258,-4.301 -9.258,-9.262 0,-5.539 4.301,-9.84 9.258,-9.84 h 95 c 47.543,0 85.781,-38.281 85.781,-85.16 v -1.871 c 0,-46.879 -38.238,-85.16 -85.781,-85.16 h -95 c -4.957,0 -9.258,-4.289 -9.258,-9.25 0,-5.551 4.301,-9.258 9.258,-9.258 z"
         style="fill:#ffffff;fill-opacity:1;fill-rule:nonzero;stroke:none"
         id="path54" /><path
         d="m 1264.88,150.121 c 46.29,0 84.53,37.649 84.53,83.938 V 350.66 c 0,4.961 -4.33,9.262 -9.25,9.262 -5.55,0 -9.89,-4.301 -9.89,-9.262 V 234.059 c 0,-36.399 -28.98,-65.43 -65.39,-65.43 -35.78,0 -65.43,29.031 -65.43,65.43 V 350.66 c 0,4.961 -4.29,9.262 -9.25,9.262 -5.55,0 -9.26,-4.301 -9.26,-9.262 V 234.059 c 0,-46.289 37.65,-83.938 83.94,-83.938 z"
         style="fill:#ffffff;fill-opacity:1;fill-rule:nonzero;stroke:none"
         id="path56" /><path
         d="m 1760.08,150.121 c 1.21,0 3.08,0 4.3,0.617 4.33,2.461 6.17,8.051 4.33,12.352 l -95.04,191.289 c -1.83,3.082 -4.92,5.543 -8.63,5.543 -3.71,0 -6.8,-2.461 -8.01,-5.543 L 1561.99,163.09 c -2.46,-4.301 -0.62,-9.891 4.34,-12.352 4.29,-2.457 9.84,-0.617 12.3,4.34 l 86.41,174.613 86.41,-174.613 c 1.83,-3.09 4.92,-4.957 8.63,-4.957 z"
         style="fill:#ffffff;fill-opacity:1;fill-rule:nonzero;stroke:none"
         id="path58" /><path
         d="m 2084.34,245.16 h 8 c 31.49,0 57.43,25.93 57.43,57.379 0,31.481 -25.94,57.383 -57.43,57.383 h -101.79 c -5.55,0 -9.26,-4.301 -9.26,-9.262 V 159.379 c 0,-5.551 3.71,-9.258 9.26,-9.258 4.92,0 9.25,3.707 9.25,9.258 V 340.82 h 92.54 c 21.02,0 38.28,-17.3 38.28,-38.281 0,-20.98 -17.26,-38.238 -38.28,-38.238 h -27.14 c -0.59,0 -0.59,0 -1.22,0 0,-0.629 -0.62,-0.629 -0.62,-0.629 -0.63,0 -0.63,0 -1.25,0 0,0 -0.59,0 -0.59,-0.621 h -0.62 c -0.63,-0.629 -0.63,-0.629 -1.25,-0.629 0,-0.582 0,-0.582 -0.63,-0.582 0,0 0,-0.629 -0.58,-0.629 0,-0.621 0,-0.621 -0.63,-0.621 0,-0.629 0,-0.629 -0.62,-1.25 0,0 0,0 0,-0.59 l -0.63,-0.629 c 0,-0.621 0,-0.621 0,-1.242 0,0 0,0 -0.62,-0.629 0,0 0,-0.59 0,-1.211 0,-0.629 0,-0.629 0,-0.629 0,0 0,-0.621 0,-1.25 0,0 0.62,0 0.62,-0.582 v -0.629 c 0,-0.621 0,-0.621 0.63,-1.25 v -0.621 c 0.62,0 0.62,-0.59 0.62,-0.59 v -0.617 l 75.28,-95.672 c 1.83,-1.828 4.33,-3.078 7.42,-3.078 1.83,0 3.67,0.617 5.54,1.867 3.72,3.09 4.93,8.633 1.22,12.934 z"
         style="fill:#ffffff;fill-opacity:1;fill-rule:nonzero;stroke:none"
         id="path60" /><path
         d="m 2465.39,150.121 c 57.38,0 104.26,46.289 104.26,103.668 v 1.871 c 0,57.391 -46.88,104.262 -104.26,104.262 h -95.04 c -4.92,0 -9.26,-4.301 -9.26,-9.262 0,-5.539 4.34,-9.84 9.26,-9.84 h 95.04 c 47.5,0 85.74,-38.281 85.74,-85.16 v -1.871 c 0,-46.879 -38.24,-85.16 -85.74,-85.16 h -95.04 c -4.92,0 -9.26,-4.289 -9.26,-9.25 0,-5.551 4.34,-9.258 9.26,-9.258 z"
         style="fill:#ffffff;fill-opacity:1;fill-rule:nonzero;stroke:none"
         id="path62" /><path
         d="m 2864.92,150.121 c 46.29,0 84.53,37.649 84.53,83.938 V 350.66 c 0,4.961 -4.29,9.262 -9.25,9.262 -5.55,0 -9.85,-4.301 -9.85,-9.262 V 234.059 c 0,-36.399 -29.02,-65.43 -65.43,-65.43 -35.78,0 -65.39,29.031 -65.39,65.43 V 350.66 c 0,4.961 -4.33,9.262 -9.26,9.262 -5.54,0 -9.25,-4.301 -9.25,-9.262 V 234.059 c 0,-46.289 37.61,-83.938 83.9,-83.938 z"
         style="fill:#ffffff;fill-opacity:1;fill-rule:nonzero;stroke:none"
         id="path64" /><path
         d="m 1474.73,718.281 c 47.97,0 94.41,6.559 138.47,18.91 l 219.92,126.95 c 66.41,64.808 115.32,147.459 138.95,240.199 v 254.37 c -23.63,92.74 -72.5,175.39 -138.91,240.16 L 1613.2,1725.9 c -44.06,12.3 -90.5,18.87 -138.47,18.87 -47.97,0 -94.38,-6.57 -138.44,-18.87 l -220.08,-127.07 c -66.33,-64.73 -115.19,-147.31 -138.831,-240 V 1104.3 c 23.711,-92.85 72.741,-175.55 139.301,-240.351 l 252.3,-145.668 z m -88.44,319.139 c -10.78,4.92 -15.55,17.66 -10.63,28.48 l 159.07,349.14 c 4.92,10.78 17.65,15.55 28.43,10.62 10.82,-4.92 15.59,-17.65 10.67,-28.43 l -159.06,-349.14 c -3.6,-7.93 -11.41,-12.62 -19.57,-12.62 -2.97,0 -6.02,0.66 -8.91,1.95 z m -82.66,11.64 c -8.4,-8.4 -21.95,-8.4 -30.35,0 l -166.91,166.92 c -8.4,8.4 -8.4,21.99 0,30.39 l 166.91,166.91 c 8.4,8.4 21.99,8.4 30.35,0 8.4,-8.4 8.4,-21.99 0,-30.39 l -151.72,-151.72 151.72,-151.72 c 8.4,-8.4 8.4,-21.99 0,-30.39 z m 342.19,364.22 c 8.4,8.4 21.95,8.4 30.39,0 l 166.91,-166.91 c 8.4,-8.4 8.4,-21.99 0,-30.39 l -166.91,-166.92 c -8.4,-8.4 -21.99,-8.4 -30.39,0 -8.4,8.4 -8.4,21.99 0,30.39 l 151.72,151.72 -151.72,151.72 c -8.4,8.4 -8.4,21.99 0,30.39 z m 261.68,159.81 c 52.93,-30.59 79.41,-76.45 79.41,-137.58 v -407.97 c 0,-61.13 -26.48,-106.989 -79.41,-137.579 L 1554.14,685.98 c -52.93,-30.55 -105.9,-30.55 -158.83,0 l -353.32,203.981 c -52.97,30.59 -79.412,76.449 -79.412,137.579 v 407.97 c 0,61.13 26.442,106.99 79.412,137.58 l 353.32,203.98 c 52.93,30.59 105.9,30.59 158.83,0 z"
         style="fill:#ffffff;fill-opacity:1;fill-rule:evenodd;stroke:none"
         id="path66" /></g></g></svg>
