<svg viewBox="0 0 30 30" xmlns="http://www.w3.org/2000/svg"><path d="M20 28c-4.962 0-9-3.589-9-8s4.038-8 9-8 9 3.589 9 8-4.038 8-9 8z"/><path d="M20 13c4.418 0 8 3.134 8 7s-3.582 7-8 7-8-3.134-8-7 3.582-7 8-7m0-2c-5.514 0-10 4.037-10 9s4.486 9 10 9 10-4.037 10-9-4.486-9-10-9z"/><circle cx="3.5" cy="23.5" r=".5"/><path d="M10 20c0-4.963 4.486-9 10-9 1.382 0 2.7.254 3.899.713C23.203 6.799 18.594 3 13 3 6.925 3 2 7.477 2 13c0 4.73 3.617 8.684 8.471 9.724A8.152 8.152 0 0 1 10 20zM27.868 27.279C25.445 25.131 26.333 23 26.333 23L20.5 24.667s3.052 3.101 7.014 3.325l.354-.713z"/><circle cx="27.583" cy="27.583" r=".417"/><path d="M9 20a8.96 8.96 0 0 1 .601-3.2L4 14s4.078 5.434-.678 9.034l.261.956c2.276 0 4.163-1.133 5.57-2.413A8.939 8.939 0 0 1 9 20z"/></svg>